<?xml version="1.0" encoding="UTF-8"?>
<svg version="1.1" xmlns="http://www.w3.org/2000/svg" width="500" height="191">
<path d="M0 0 C165 0 330 0 500 0 C500 63.03 500 126.06 500 191 C335 191 170 191 0 191 C0 127.97 0 64.94 0 0 Z " fill="#0487D1" transform="translate(0,0)"/>
<path d="M0 0 C1.72573242 -0.01740234 1.72573242 -0.01740234 3.48632812 -0.03515625 C19.55085171 0.01945403 32.78142376 5.32449279 44.6015625 16.2265625 C46.42192767 18.22098649 47.52194257 19.90227751 48.5625 22.375 C37.52140411 32.375 37.52140411 32.375 32.5625 32.375 C31.923125 31.67375 31.28375 30.9725 30.625 30.25 C24.59155764 23.81310557 14.07519863 19.75542462 5.44921875 19.16015625 C-7.17334802 18.81527738 -17.03085349 21.18670528 -27.4375 28.375 C-28.324375 28.9525 -29.21125 29.53 -30.125 30.125 C-39.44901192 39.1970116 -43.44965682 49.90970246 -43.90795898 62.76293945 C-44.06722788 76.84573197 -41.34607827 89.1582953 -31.33203125 99.5625 C-26.79490658 103.81068557 -22.23809449 107.10861685 -16.4375 109.375 C-15.60863281 109.73078125 -14.77976563 110.0865625 -13.92578125 110.453125 C-2.28984462 113.52824375 14.99386969 113.43868741 25.5625 107.375 C32.53597274 102.76847463 36.57303905 97.52231627 38.5625 89.375 C38.8925 86.735 39.2225 84.095 39.5625 81.375 C29.6625 81.375 19.7625 81.375 9.5625 81.375 C9.5625 75.435 9.5625 69.495 9.5625 63.375 C26.0625 63.375 42.5625 63.375 59.5625 63.375 C59.5625 91.74746964 59.5625 91.74746964 56.5625 99.375 C56.23378906 100.22578125 55.90507812 101.0765625 55.56640625 101.953125 C51.17704798 111.85576027 43.32420612 120.56225187 33.5625 125.375 C29.28732297 126.96307314 24.9747822 128.22895268 20.5625 129.375 C19.33660156 129.73335937 18.11070313 130.09171875 16.84765625 130.4609375 C-0.2672046 134.67483143 -20.30590994 131.44141591 -35.62890625 123.125 C-51.57490856 113.18924335 -61.20100727 98.58046877 -65.4375 80.375 C-68.5538944 62.32588241 -66.68829093 43.95226991 -56.4375 28.375 C-42.56757201 9.87815917 -23.07286691 -0.23188811 0 0 Z " fill="#F09504" transform="translate(89.4375,13.625)"/>
<path d="M0 0 C57.01449275 0 57.01449275 0 65.8828125 7.6171875 C74.30818282 16.40729247 76.70815488 26.20944153 76.52368164 38.05517578 C76.08932933 48.06835078 73.1258973 56.74183546 66 64 C53.07151428 74.88265941 35.7139713 72 20 72 C20 91.47 20 110.94 20 131 C13.4 131 6.8 131 0 131 C0 87.77 0 44.54 0 0 Z " fill="#EF9504" transform="translate(170,14)"/>
<path d="M0 0 C6.78950896 3.7515605 10.60471933 8.63447049 13.0390625 15.9375 C13.99215283 23.48052916 12.61173066 28.86066468 8.0390625 34.9375 C3.84821935 39.55433544 -1.35027293 42.49427471 -7.5703125 43.2578125 C-13.88625406 43.51952279 -18.85885953 42.81249592 -23.9609375 38.9375 C-28.32878997 34.72502568 -32.53390392 30.41335472 -33.296875 24.203125 C-33.39672019 16.49507665 -32.71589249 10.92380293 -27.3125 5.1875 C-19.69719361 -1.72945952 -9.83451967 -3.5290097 0 0 Z " fill="#EFF8F6" transform="translate(381.9609375,102.0625)"/>
<path d="M0 0 C0.77138587 0.00291284 1.54277174 0.00582568 2.33753294 0.00882679 C3.15101428 0.00797237 3.96449563 0.00711794 4.80262792 0.00623763 C7.54963126 0.00458033 10.29657458 0.01010824 13.04357237 0.01555592 C15.00428606 0.01583776 16.96499985 0.01568011 18.92571348 0.01511341 C24.26640219 0.01482533 29.60706866 0.02072379 34.94775218 0.02768737 C40.52249201 0.03391913 46.0972323 0.03452457 51.67197508 0.03571278 C62.23652976 0.03882662 72.80107416 0.04704072 83.36562431 0.05706227 C95.38960115 0.06822176 107.41357846 0.07373344 119.43755919 0.0787577 C144.17920146 0.08922329 168.92083458 0.10682376 193.66246885 0.12908131 C192.48432576 3.66351059 191.89143393 4.36387868 188.66246885 6.12908131 C185.89420853 6.41170847 183.35490565 6.52137982 180.58867735 6.48984486 C179.76854918 6.49240813 178.948421 6.49497141 178.10344046 6.49761236 C175.35175856 6.50255891 172.60062375 6.48604305 169.84899229 6.46965748 C167.87798412 6.4688114 165.906975 6.46928599 163.93596739 6.470985 C158.58092059 6.4718471 153.22607466 6.45418643 147.87107462 6.43326312 C142.27634215 6.41453223 136.68160528 6.41274871 131.08684629 6.4091869 C120.49047759 6.39985589 109.89420154 6.37522778 99.29787368 6.34513843 C87.23514559 6.3116273 75.17241311 6.29511668 63.10965008 6.28005213 C38.2938716 6.24867918 13.47817541 6.19589813 -11.33753115 6.12908131 C-5.22340994 0.0149601 -5.22340994 0.0149601 0 0 Z " fill="#EBF6F6" transform="translate(278.33753114938736,30.870918691158295)"/>
<path d="M0 0 C0.77138587 0.00291284 1.54277174 0.00582568 2.33753294 0.00882679 C3.15101428 0.00797237 3.96449563 0.00711794 4.80262792 0.00623763 C7.54963126 0.00458033 10.29657458 0.01010824 13.04357237 0.01555592 C15.00428606 0.01583776 16.96499985 0.01568011 18.92571348 0.01511341 C24.26640219 0.01482533 29.60706866 0.02072379 34.94775218 0.02768737 C40.52249201 0.03391913 46.0972323 0.03452457 51.67197508 0.03571278 C62.23652976 0.03882662 72.80107416 0.04704072 83.36562431 0.05706227 C95.38960115 0.06822176 107.41357846 0.07373344 119.43755919 0.0787577 C144.17920146 0.08922329 168.92083458 0.10682376 193.66246885 0.12908131 C193.66246885 2.12908131 193.66246885 2.12908131 191.67459673 4.22401768 C187.88261949 6.62230826 184.8117375 6.67636949 180.46842283 6.61009938 C179.64744023 6.61351707 178.82645764 6.61693477 177.98059678 6.62045604 C175.23186403 6.62704042 172.48410956 6.60504997 169.7354669 6.58318287 C167.76431133 6.58205451 165.79315408 6.58268803 163.82199949 6.58495289 C158.47107945 6.58610142 153.12051745 6.56256947 147.76968068 6.53465706 C142.17763146 6.50966662 136.5855742 6.50730326 130.99347776 6.50255543 C120.40419082 6.49011875 109.81506889 6.45728766 99.22585464 6.41715747 C87.1703686 6.3724614 75.11487472 6.35045815 63.05932647 6.33037573 C38.26028242 6.28855572 13.46138488 6.2181901 -11.33753115 6.12908131 C-5.22340994 0.0149601 -5.22340994 0.0149601 0 0 Z " fill="#EDF7F5" transform="translate(278.33753114938736,13.870918691158295)"/>
<path d="M0 0 C22.41246057 0 22.41246057 0 29.5 5.375 C33.26210395 9.32520914 34.29687389 12.9139859 34.375 18.3125 C34.23308205 23.57765586 33.67779076 28.02198142 30 32 C20.58985258 37.54296355 10.80197881 37 0 37 C0 24.79 0 12.58 0 0 Z " fill="#0987CC" transform="translate(191,32)"/>
<path d="M0 0 C1.14980744 0.02184631 1.14980744 0.02184631 2.32284331 0.04413396 C3.14297148 0.03986184 3.96309966 0.03558971 4.8080802 0.03118813 C7.56011605 0.02294282 10.31063262 0.05046768 13.06252837 0.07777959 C15.03353631 0.07918973 17.00454687 0.07839875 18.97555327 0.07556707 C24.33074679 0.07413019 29.6853824 0.10356426 35.04044604 0.13843685 C40.63516019 0.16965491 46.22988657 0.17262751 51.82467437 0.17856389 C62.42112217 0.19411569 73.01731261 0.23516239 83.61364698 0.28531134 C95.67635177 0.34116311 107.73906873 0.36868085 119.80187058 0.39378852 C144.61774045 0.44607695 169.43338172 0.53404535 194.24905181 0.64540654 C191.45120959 4.10702278 189.98847877 5.52321673 185.52595592 6.26064569 C184.04843457 6.2815645 182.57036763 6.27500103 181.09296966 6.24667913 C180.27607061 6.25095125 179.45917157 6.25522338 178.61751801 6.25962496 C175.88240167 6.2678557 173.14882157 6.2403695 170.41384673 6.2130335 C168.45254339 6.21162304 166.4912374 6.21241496 164.5299356 6.21524602 C159.2057903 6.21668167 153.88220726 6.18726744 148.55819273 6.15237623 C142.99418124 6.12113774 137.43015712 6.11818396 131.86607146 6.1122492 C121.32986327 6.09670342 110.79391422 6.05566484 100.25782019 6.00550175 C88.26280582 5.94963127 76.26777913 5.92212753 64.27266705 5.89702457 C39.59798492 5.84474978 14.92353288 5.75679305 -9.75094819 5.64540654 C-7.07578524 1.24027833 -5.17336917 0.07308967 0 0 Z " fill="#FBFEFA" transform="translate(277.7509481906891,22.354593455791473)"/>
<path d="M0 0 C1.37478516 0.01740234 1.37478516 0.01740234 2.77734375 0.03515625 C3.69644531 0.04417969 4.61554688 0.05320313 5.5625 0.0625 C6.27277344 0.07410156 6.98304688 0.08570313 7.71484375 0.09765625 C8.20513062 1.12366943 8.20513062 1.12366943 8.70532227 2.17041016 C10.22805287 5.35510469 11.75243984 8.53900176 13.27734375 11.72265625 C13.82293945 12.86226807 14.36853516 14.00187988 14.93066406 15.17602539 C18.39936375 22.4048819 21.93259304 29.59162213 25.60546875 36.71875 C26.71484375 39.09765625 26.71484375 39.09765625 26.71484375 41.09765625 C23.74484375 41.09765625 20.77484375 41.09765625 17.71484375 41.09765625 C16.39484375 38.45765625 15.07484375 35.81765625 13.71484375 33.09765625 C6.12484375 32.76765625 -1.46515625 32.43765625 -9.28515625 32.09765625 C-9.94515625 34.07765625 -10.60515625 36.05765625 -11.28515625 38.09765625 C-11.94515625 39.08765625 -12.60515625 40.07765625 -13.28515625 41.09765625 C-15.23046875 41.390625 -15.23046875 41.390625 -17.41015625 41.28515625 C-18.68890625 41.22328125 -19.96765625 41.16140625 -21.28515625 41.09765625 C-20.64421651 36.25262657 -18.64043985 32.31733628 -16.50390625 27.98828125 C-16.13036011 27.22086609 -15.75681396 26.45345093 -15.37194824 25.66278076 C-14.58449807 24.04778831 -13.79427866 22.43414351 -13.00146484 20.82177734 C-11.78388937 18.34507925 -10.5748391 15.86436234 -9.3671875 13.3828125 C-8.60075242 11.81356169 -7.83384194 10.24454296 -7.06640625 8.67578125 C-6.70285034 7.93104553 -6.33929443 7.18630981 -5.96472168 6.41900635 C-2.86431564 0.12240665 -2.86431564 0.12240665 0 0 Z " fill="#F3FBF7" transform="translate(388.28515625,47.90234375)"/>
<path d="M0 0 C2.97 0 5.94 0 9 0 C9 5.28 9 10.56 9 16 C15.27 16 21.54 16 28 16 C28 10.72 28 5.44 28 0 C30.97 0 33.94 0 37 0 C37 13.53 37 27.06 37 41 C34.03 41 31.06 41 28 41 C28 35.06 28 29.12 28 23 C21.73 23 15.46 23 9 23 C9 28.94 9 34.88 9 41 C6.03 41 3.06 41 0 41 C0 27.47 0 13.94 0 0 Z " fill="#F1FAF7" transform="translate(268,48)"/>
<path d="M0 0 C1.83111328 -0.03867188 1.83111328 -0.03867188 3.69921875 -0.078125 C8.74172564 0.37978914 11.98853496 2.03055852 15.6875 5.4375 C17.79875822 9.09160076 18.09980498 12.17828129 17.3125 16.25 C15.625 19.6875 15.625 19.6875 13.3125 22.25 C10.5625 23.125 10.5625 23.125 8.3125 23.25 C11.79144944 28.58013354 15.59700723 33.59958679 19.484375 38.640625 C21.3125 41.25 21.3125 41.25 21.3125 43.25 C18.33388812 43.59258795 16.20449082 43.8239931 13.3125 43.25 C10.97222453 41.36479858 9.55467925 39.0481572 8 36.5 C7.58427734 35.86578125 7.16855469 35.2315625 6.74023438 34.578125 C5.96190779 33.39021797 5.19499518 32.19468698 4.4440918 30.98925781 C3.15856688 29.01340463 1.72684269 27.13579025 0.3125 25.25 C-0.0175 31.19 -0.3475 37.13 -0.6875 43.25 C-2.9975 43.25 -5.3075 43.25 -7.6875 43.25 C-7.71214574 37.28686834 -7.730334 31.32376605 -7.74243164 25.3605957 C-7.74747278 23.33031702 -7.75430557 21.30004198 -7.76293945 19.26977539 C-7.77501467 16.35822653 -7.78073034 13.4467255 -7.78515625 10.53515625 C-7.79031754 9.6216188 -7.79547882 8.70808136 -7.80079651 7.76686096 C-7.80099168 5.59424573 -7.74961805 3.42172704 -7.6875 1.25 C-5.77919972 -0.65830028 -2.53976111 0.03184653 0 0 Z " fill="#EBF6F6" transform="translate(324.6875,100.75)"/>
<path d="M0 0 C2.94244821 1.5877879 4.00694 3.1886869 5.3125 6.25 C2.3125 8.25 2.3125 8.25 0.4375 8 C-1.6875 7.25 -1.6875 7.25 -3.875 6.1875 C-8.5210253 4.6388249 -13.21824631 4.07838813 -17.75390625 6.23046875 C-21.09400227 8.49671344 -23.22221364 10.41399089 -24.6875 14.25 C-25.37224198 20.21703729 -25.48810035 25.34089122 -21.6875 30.25 C-21.6875 30.91 -21.6875 31.57 -21.6875 32.25 C-15.25107017 34.85936344 -10.31255558 36.43511432 -3.4375 34.1875 C0.23866513 31.59747457 0.88343477 29.45780318 2.3125 25.25 C-0.9875 25.25 -4.2875 25.25 -7.6875 25.25 C-7.6875 23.27 -7.6875 21.29 -7.6875 19.25 C-2.0775 19.25 3.5325 19.25 9.3125 19.25 C9.89411351 31.17307692 9.89411351 31.17307692 5.3125 36.25 C-0.5101491 41.62475301 -5.78361294 42.77797068 -13.546875 42.625 C-19.32889155 41.93460996 -24.23167847 39.73471355 -28.34765625 35.5703125 C-32.68484367 29.88012493 -34.24026148 23.94625782 -34.05859375 16.83984375 C-33.12430906 10.31952004 -29.67982178 5.71545231 -24.5625 1.75 C-17.62265374 -3.11059271 -7.691199 -3.60524953 0 0 Z " fill="#F1F9F7" transform="translate(300.6875,102.75)"/>
<path d="M0 0 C4.01163745 1.67961291 7.03151104 3.97098048 10 7.125 C12.03740031 12.9825259 12.02708606 18.82731794 9.375 24.4375 C5.04565669 29.10863357 1.92123974 31.23861982 -4.5 31.5 C-9.4034317 31.30013186 -12.34749588 30.46987891 -16 27 C-19.46669691 22.37773746 -19.62062879 17.52532526 -19.48828125 11.91796875 C-18.73340095 7.40680405 -16.58058568 4.74292573 -13 2 C-8.73724783 -0.53530623 -4.85099525 -0.77934022 0 0 Z " fill="#0B8AD1" transform="translate(376,107)"/>
<path d="M0 0 C1.24487183 -0.00290039 1.24487183 -0.00290039 2.51489258 -0.00585938 C10.09627042 0.18832746 15.47559592 2.31260026 21.8125 6.5625 C20.078125 10.4375 20.078125 10.4375 17.6875 11.5625 C14.59778478 11.5625 13.87181571 11.14223147 11.3125 9.625 C5.72943135 6.60083782 -0.00347707 6.66805279 -6.1875 7.5625 C-10.47043637 9.19028267 -13.25698275 11.45751077 -16.1875 14.9375 C-17.93481802 19.52420981 -17.66339646 23.13481062 -16.125 27.75 C-13.17900601 32.02644289 -9.69694628 33.80966612 -4.6875 35.3125 C1.76924552 35.95817455 5.91583303 35.401168 11.69921875 32.53515625 C13.73182645 31.59963071 15.63020334 31.03048687 17.8125 30.5625 C19.1325 32.2125 20.4525 33.8625 21.8125 35.5625 C12.18198915 42.11625024 2.88853694 44.21142885 -8.74609375 42.09765625 C-15.55102603 40.1045305 -21.73193512 36.23192444 -25.6875 30.25 C-27.79765812 25.06252796 -28.18885977 20.80951274 -26.52734375 15.421875 C-23.45227713 8.44639921 -18.19320854 4.0419262 -11.18823242 1.17553711 C-7.49516304 0.04395722 -3.83911345 -0.0092835 0 0 Z " fill="#F2FAF7" transform="translate(449.1875,47.4375)"/>
<path d="M0 0 C3 0.125 3 0.125 4 1.125 C4.12213755 3.28414992 4.17980155 5.44699748 4.2109375 7.609375 C4.2390223 8.9505327 4.26768686 10.29167836 4.296875 11.6328125 C4.3380297 13.75032 4.37490763 15.86760669 4.40136719 17.98535156 C4.42910147 20.02716855 4.47498744 22.06795817 4.5234375 24.109375 C4.54325684 25.33366211 4.56307617 26.55794922 4.58349609 27.81933594 C5.03123883 31.37293306 5.81491682 33.30896873 8 36.125 C11.70097978 37.03470648 15.25368646 36.73721616 19 36.125 C21.63786025 34.3664265 22.59416291 33.36753703 23.56616211 30.39160156 C24.1286925 27.45264142 24.22123841 24.60036433 24.31640625 21.609375 C24.35830078 20.35898438 24.40019531 19.10859375 24.44335938 17.8203125 C24.48267578 16.51835938 24.52199219 15.21640625 24.5625 13.875 C24.60568359 12.55757812 24.64886719 11.24015625 24.69335938 9.8828125 C24.79941917 6.63031212 24.90148024 3.37773608 25 0.125 C27.31 0.125 29.62 0.125 32 0.125 C32.07462728 4.41166736 32.12882508 8.69798207 32.16479492 12.98510742 C32.17980313 14.44090368 32.20021633 15.89665532 32.22631836 17.35229492 C32.26305676 19.45502789 32.2798056 21.55715885 32.29296875 23.66015625 C32.3086792 24.922229 32.32438965 26.18430176 32.34057617 27.48461914 C31.86473607 32.57082116 30.38509364 36.41671784 27.125 40.4375 C21.39510128 44.98771369 14.99933968 44.7328124 8 44.125 C3.22766425 42.50581466 0.74111783 40.3345738 -2 36.125 C-3.77307266 31.69291135 -4.24707971 27.98934453 -4.23046875 23.23046875 C-4.22853516 21.94591797 -4.22660156 20.66136719 -4.22460938 19.33789062 C-4.21840576 18.67764893 -4.21220215 18.01740723 -4.20581055 17.3371582 C-4.18739436 15.30081853 -4.18530226 13.26493044 -4.18554688 11.22851562 C-4.13536741 0.17230698 -4.13536741 0.17230698 0 0 Z " fill="#E9F6F6" transform="translate(406,100.875)"/>
<path d="M0 0 C2.97 0 5.94 0 9 0 C13.29 9.57 17.58 19.14 22 29 C27.13059514 18.74355926 27.13059514 18.74355926 31.8125 8.3125 C34.87319712 1.12680288 34.87319712 1.12680288 36 0 C37.51928038 -0.07179964 39.04167482 -0.08392007 40.5625 -0.0625 C41.38878906 -0.05347656 42.21507812 -0.04445312 43.06640625 -0.03515625 C43.70449219 -0.02355469 44.34257812 -0.01195312 45 0 C43.46847124 3.91650135 41.79249565 7.75144326 40.06640625 11.5859375 C39.78780258 12.20594635 39.50919891 12.8259552 39.22215271 13.4647522 C38.33656703 15.43527055 37.44964229 17.40518201 36.5625 19.375 C35.67907299 21.3377412 34.7959598 23.3006217 33.91355896 25.26382446 C33.11048052 27.05038795 32.30636884 28.83648688 31.50219727 30.62255859 C29.96931602 34.06898785 28.47805488 37.52978419 27 41 C23.7 41 20.4 41 17 41 C16.69819824 40.31075439 16.39639648 39.62150879 16.08544922 38.91137695 C14.68327336 35.71117649 13.27933528 32.51175343 11.875 29.3125 C11.37379639 28.16958496 10.87259277 27.02666992 10.35620117 25.84912109 C7.31536038 18.9327954 4.21553541 12.05972673 0.92578125 5.2578125 C0 3 0 3 0 0 Z " fill="#F1FAF7" transform="translate(315,48)"/>
<path d="M0 0 C18.75 0 18.75 0 24.4375 5.25 C26.46688034 8.82170941 26.49856686 10.94024128 26 15 C24.76904667 18.36892491 23.61260063 20.42568691 21 22.875 C16.3169019 24.63116179 11.97914729 24.17996918 7 24 C7 30.27 7 36.54 7 43 C4.69 43 2.38 43 0 43 C0 28.81 0 14.62 0 0 Z " fill="#EDF7F6" transform="translate(447,101)"/>
<path d="M0 0 C16.53378378 0 16.53378378 0 19.6953125 2.15625 C22.15311272 4.79662966 22.99518921 6.9700662 23.5625 10.5 C22.90105384 14.61566498 21.61724676 16.78452541 19 20 C15.33134759 22.44576827 13.32799657 22.23607254 9 22 C8.34 21.67 7.68 21.34 7 21 C6.67 22.32 6.34 23.64 6 25 C4.02 25 2.04 25 0 25 C0 16.75 0 8.5 0 0 Z " fill="#EAF6F5" transform="translate(346,160)"/>
<path d="M0 0 C1.98 0 3.96 0 6 0 C6 0.66 6 1.32 6 2 C6.99 1.34 7.98 0.68 9 0 C12.96869102 -0.5291588 14.71621958 -0.15826216 18.25 1.8125 C21 4 21 4 23 7 C23.25649451 11.56560235 22.54262959 15.15979934 20.0625 19 C17.31556082 21.6636986 16.51113675 21.97160351 12.625 22.1875 C9.32932477 22.01703404 7.7163171 21.73844294 5 20 C5 21.65 5 23.3 5 25 C3.35 25 1.7 25 0 25 C0 16.75 0 8.5 0 0 Z " fill="#EEF7F7" transform="translate(373,160)"/>
<path d="M0 0 C2.90410799 1.37765123 5.44793761 3.05292243 8 5 C7.67 5.99 7.34 6.98 7 8 C5.1875 8.8125 5.1875 8.8125 3 9 C2.4225 8.690625 1.845 8.38125 1.25 8.0625 C-2.14159958 6.46091131 -5.31783533 6.41145729 -9 7 C-11.66666667 8.33333333 -11.66666667 8.33333333 -13 11 C-13.70476018 15.93332128 -13.77041398 17.84437903 -11 22 C-6.91404767 24.72396822 -4.84747463 24.46911045 0 24 C0.99 23.67 1.98 23.34 3 23 C3 22.34 3 21.68 3 21 C0.69 21 -1.62 21 -4 21 C-4 19.02 -4 17.04 -4 15 C0.62 15 5.24 15 10 15 C10 22.90662651 10 22.90662651 7.75 25.3125 C3.79988431 29.17284034 1.14152423 30.29773776 -4.375 30.375 C-9.3910239 30.26813398 -12.22127014 29.50223743 -16 26 C-19.82858743 21.76840336 -20.80029033 18.11168794 -20.58984375 12.5390625 C-19.52682657 7.96316075 -16.54579777 4.94041766 -13 2 C-8.78372351 -0.55151652 -4.8137422 -0.80883433 0 0 Z " fill="#EEF8F6" transform="translate(55,152)"/>
<path d="M0 0 C0.70125 0.09023437 1.4025 0.18046875 2.125 0.2734375 C4 0.625 4 0.625 6 1.625 C6 0.965 6 0.305 6 -0.375 C7.65 -0.375 9.3 -0.375 11 -0.375 C11 6.885 11 14.145 11 21.625 C9.35 21.625 7.7 21.625 6 21.625 C6 20.965 6 20.305 6 19.625 C5.484375 19.955 4.96875 20.285 4.4375 20.625 C1.03878205 22.01934583 -1.35594448 22.07251559 -5 21.625 C-9.11598872 18.2248354 -10.84447949 16.18020511 -11.375 10.875 C-11.35058775 7.52441932 -10.75601354 5.77605468 -8.625 3.1875 C-5.38081552 0.020558 -4.33064738 -0.58909542 0 0 Z " fill="#F1F9F7" transform="translate(80,160.375)"/>
<path d="M0 0 C2.375 1.125 2.375 1.125 4 3 C4.52979878 6.5572204 4.43204232 8.31593299 2.5 11.375 C2.005 11.91125 1.51 12.4475 1 13 C1.66 14.32 2.32 15.64 3 17 C4.65 17 6.3 17 8 17 C9.76462683 20.08809695 10 21.23312136 10 25 C10.66 25.99 11.32 26.98 12 28 C8.56265937 28.08703823 5.12560163 28.14040272 1.6875 28.1875 C0.71103516 28.21263672 -0.26542969 28.23777344 -1.27148438 28.26367188 C-2.67817383 28.27817383 -2.67817383 28.27817383 -4.11328125 28.29296875 C-4.97735596 28.3086792 -5.84143066 28.32438965 -6.73168945 28.34057617 C-9.48055823 27.92784644 -10.33758094 27.18494117 -12 25 C-12.3984375 23.0625 -12.3984375 23.0625 -12.375 21 C-12.38273437 20.319375 -12.39046875 19.63875 -12.3984375 18.9375 C-12 17 -12 17 -10.44140625 15.55859375 C-8.72507602 14.06725885 -8.72507602 14.06725885 -9.06640625 11.66015625 C-9.23011719 10.80292969 -9.39382812 9.94570312 -9.5625 9.0625 C-10.1864835 4.31329227 -10.1864835 4.31329227 -8.4375 1.375 C-5.31970377 -0.38375685 -3.53227935 -0.51512407 0 0 Z " fill="#EBF6F6" transform="translate(140,154)"/>
<path d="M0 0 C2.31 0 4.62 0 7 0 C9.8152292 6.08089508 12.31897366 12.25792629 14.75 18.5 C15.06783447 19.31388184 15.38566895 20.12776367 15.71313477 20.96630859 C18 26.87316126 18 26.87316126 18 28 C16.02 28 14.04 28 12 28 C11.34 26.02 10.68 24.04 10 22 C6.04 22 2.08 22 -2 22 C-2.66 23.98 -3.32 25.96 -4 28 C-5.98 28 -7.96 28 -10 28 C-7.46277869 18.38272302 -3.66846291 9.22643548 0 0 Z " fill="#F1F9F7" transform="translate(235,154)"/>
<path d="M0 0 C1.98 0 3.96 0 6 0 C6 3.63 6 7.26 6 11 C9.3 11 12.6 11 16 11 C16 7.7 16 4.4 16 1 C17.65 1 19.3 1 21 1 C21 10.24 21 19.48 21 29 C19.35 29 17.7 29 16 29 C16 25.04 16 21.08 16 17 C12.7 17 9.4 17 6 17 C6 21.29 6 25.58 6 30 C4.02 30 2.04 30 0 30 C0 20.1 0 10.2 0 0 Z " fill="#EEF8F7" transform="translate(171,153)"/>
<path d="M0 0 C0.79921875 0.01804687 1.5984375 0.03609375 2.421875 0.0546875 C3.02515625 0.07789062 3.6284375 0.10109375 4.25 0.125 C4.25 0.455 4.25 0.785 4.25 1.125 C1.61 1.125 -1.03 1.125 -3.75 1.125 C-3.75 1.785 -3.75 2.445 -3.75 3.125 C-3.13125 3.393125 -2.5125 3.66125 -1.875 3.9375 C0.25 5.125 0.25 5.125 2.25 8.125 C2.4453125 10.38671875 2.4453125 10.38671875 2.375 12.8125 C2.35695313 13.62074219 2.33890625 14.42898437 2.3203125 15.26171875 C2.29710937 15.87660156 2.27390625 16.49148437 2.25 17.125 C0.93 17.455 -0.39 17.785 -1.75 18.125 C-1.688125 19.424375 -1.688125 19.424375 -1.625 20.75 C-1.75583411 24.28252085 -2.38902501 26.87378197 -3.75 30.125 C-4.41 30.455 -5.07 30.785 -5.75 31.125 C-10.49301233 28.38459287 -13.05440146 26.40019547 -14.75 21.125 C-15.4292276 16.19202378 -15.94887915 11.37144346 -13.54296875 6.86328125 C-9.69873833 2.22100806 -6.14652407 -0.18078012 0 0 Z " fill="#2295D4" transform="translate(371.75,106.875)"/>
<path d="M0 0 C2.80157491 1.39595716 4.63292999 2.89593777 7 5 C6 8 6 8 4.25 8.875 C2 9 2 9 -0.3125 7.5 C-3.99074152 5.44702799 -5.99377197 5.90739235 -10 7 C-12.58333333 8.41666667 -12.58333333 8.41666667 -14 11 C-14.80016627 15.01732963 -14.66540643 17.96196597 -12.4375 21.4375 C-9.19100111 23.51858903 -6.84752461 23.93249957 -3 24 C-1.31970006 23.02308143 0.34928604 22.02611949 2 21 C4.3125 21.8125 4.3125 21.8125 6 23 C6 23.99 6 24.98 6 26 C0.27187122 29.33272947 -4.32274051 31.23652953 -11 30 C-16.11762818 27.34641502 -19.17705942 24.46882174 -21 19 C-21.53856933 14.36477214 -21.45178019 10.92093654 -19.375 6.6875 C-13.69772877 0.26321939 -8.41631358 -1.47163865 0 0 Z " fill="#EFF8F6" transform="translate(277,153)"/>
<path d="M0 0 C2.5302323 2.11833402 3.74688068 3.14595624 4.6875 6.25 C4.6875 7.9 4.6875 9.55 4.6875 11.25 C-0.9225 11.25 -6.5325 11.25 -12.3125 11.25 C-11.3225 12.735 -11.3225 12.735 -10.3125 14.25 C-7.71214649 14.57695075 -7.71214649 14.57695075 -4.8125 14.375 C0.51676829 14.16463415 0.51676829 14.16463415 2.6875 15.25 C1.6875 18.25 1.6875 18.25 -0.1015625 19.41015625 C-3.84994189 20.83401061 -7.37420158 20.93818017 -11.3125 20.25 C-14.38311968 18.53631391 -16.71700726 16.44098548 -18.3125 13.25 C-18.71960593 9.01609838 -18.56825965 6.73411648 -16.5625 2.9375 C-11.92623943 -2.60025568 -6.52345032 -3.44635111 0 0 Z " fill="#E7F4F5" transform="translate(436.3125,161.75)"/>
<path d="M0 0 C0.33 0 0.66 0 1 0 C1 9.9 1 19.8 1 30 C-10.22 30 -21.44 30 -33 30 C-29.60278795 28.30139398 -26.4561233 27.14127518 -22.875 25.9375 C-12.87224856 22.09374608 -6.25808072 16.02586522 -1.83984375 6.26171875 C-1.06922204 4.18641656 -0.47930063 2.15932348 0 0 Z " fill="#F8FBFC" transform="translate(499,161)"/>
<path d="M0 0 C1.98 0 3.96 0 6 0 C6.42152344 1.14339844 6.84304687 2.28679687 7.27734375 3.46484375 C7.83058521 4.95578259 8.38397847 6.44666511 8.9375 7.9375 C9.21529297 8.69224609 9.49308594 9.44699219 9.77929688 10.22460938 C10.91753451 13.88779139 10.91753451 13.88779139 13 17 C14.98 11.39 16.96 5.78 19 0 C20.98 0 22.96 0 25 0 C24.3490961 3.64795474 23.38201944 7.02569081 22.15234375 10.51953125 C21.79462891 11.54111328 21.43691406 12.56269531 21.06835938 13.61523438 C20.69517578 14.67033203 20.32199219 15.72542969 19.9375 16.8125 C19.56044922 17.88693359 19.18339844 18.96136719 18.79492188 20.06835938 C17.86625342 22.71330118 16.93451811 25.35712054 16 28 C13.69 28 11.38 28 9 28 C7.49500991 23.71006667 5.99685363 19.41777842 4.5 15.125 C4.07074219 13.90167969 3.64148438 12.67835938 3.19921875 11.41796875 C2.79316406 10.25136719 2.38710937 9.08476562 1.96875 7.8828125 C1.59169922 6.80402832 1.21464844 5.72524414 0.82617188 4.61376953 C0 2 0 2 0 0 Z " fill="#F0F9F7" transform="translate(197,154)"/>
<path d="M0 0 C9.9 0 19.8 0 30 0 C27.90547213 1.04726393 25.80566931 2.08691172 23.66796875 3.04296875 C13.89636437 7.55175628 6.95988584 14.36848711 3.02734375 24.5078125 C2.30174603 26.66098156 1.6221322 28.81495031 1 31 C0.67 31 0.34 31 0 31 C0 20.77 0 10.54 0 0 Z " fill="#FBFDFE" transform="translate(0,0)"/>
<path d="M0 0 C0.99 0.66 1.98 1.32 3 2 C2.6875 3.9375 2.6875 3.9375 2 6 C-1.76624671 7.25541557 -3.37188934 6.37061958 -7 5 C-4.87483132 9.25033735 -2.16671919 11.75488065 1.4765625 14.66796875 C3.94234067 16.82394402 4.00462765 18.04997859 4.3125 21.375 C4 25 4 25 2.5625 27.4375 C-1.24121996 29.75684144 -4.65949488 29.78005519 -9 29 C-12.0625 27.1875 -12.0625 27.1875 -14 25 C-14 24.01 -14 23.02 -14 22 C-12.35 21.34 -10.7 20.68 -9 20 C-8.67 20.99 -8.34 21.98 -8 23 C-6.35 23 -4.7 23 -3 23 C-2.54737626 19.07713168 -2.54737626 19.07713168 -4.6796875 17.18359375 C-5.76636719 16.31927734 -5.76636719 16.31927734 -6.875 15.4375 C-12.6175335 10.81671588 -12.6175335 10.81671588 -13.5 6.625 C-12.8765386 3.35182768 -11.42112727 1.86854763 -8.7890625 -0.12109375 C-5.67335612 -1.65173553 -3.2225763 -0.9120499 0 0 Z " fill="#EFF8F6" transform="translate(313,153)"/>
<path d="M0 0 C1.98 0 3.96 0 6 0 C6.08139142 2.39652528 6.14067009 4.79025436 6.1875 7.1875 C6.21263672 7.86103516 6.23777344 8.53457031 6.26367188 9.22851562 C6.32923345 13.70855667 5.77604854 16.46037634 3 20 C-0.66781672 22.44521115 -3.73453233 22.72237759 -8 22 C-10.43119623 20.12984906 -11.64069173 18.71861655 -13 16 C-13.0716735 13.44842345 -13.09308442 10.92527029 -13.0625 8.375 C-13.05798828 7.66859375 -13.05347656 6.9621875 -13.04882812 6.234375 C-13.03703875 4.48954725 -13.01910324 2.744763 -13 1 C-11.35 1 -9.7 1 -8 1 C-7.93941406 1.91523438 -7.87882812 2.83046875 -7.81640625 3.7734375 C-7.73261719 4.96195313 -7.64882813 6.15046875 -7.5625 7.375 C-7.48128906 8.55835938 -7.40007812 9.74171875 -7.31640625 10.9609375 C-7.18915064 13.91518901 -7.18915064 13.91518901 -6 16 C-4.35 16.33 -2.7 16.66 -1 17 C-0.67 11.39 -0.34 5.78 0 0 Z " fill="#EFF8F7" transform="translate(335,160)"/>
<path d="M0 0 C2.375 1.5 2.375 1.5 4 3 C3.34 4.32 2.68 5.64 2 7 C-0.97 6.505 -0.97 6.505 -4 6 C-4 6.66 -4 7.32 -4 8 C-3.071875 8.268125 -2.14375 8.53625 -1.1875 8.8125 C3.33043478 10.49565217 3.33043478 10.49565217 5 13 C5.5 15.4375 5.5 15.4375 5 18 C2.18701239 21.15395581 0.60068961 21.9378597 -3.625 22.375 C-7 22 -7 22 -10 20 C-9.67 18.68 -9.34 17.36 -9 16 C-5.88742431 16 -3.89234315 16.17361624 -1 17 C-1.73971936 13.61916393 -1.73971936 13.61916393 -5.5 12.1875 C-8.45346599 10.59810902 -8.88427161 10.29236646 -10.1875 7 C-10 4 -10 4 -8.4375 1.625 C-5.32593514 -0.44937658 -3.67692853 -0.53621874 0 0 Z " fill="#EBF6F6" transform="translate(454,160)"/>
<path d="M0 0 C0.99 0.66 1.98 1.32 3 2 C2.34 3.32 1.68 4.64 1 6 C-1.97 5.505 -1.97 5.505 -5 5 C-3.78934835 7.42130331 -2.78126593 7.84658222 -0.4375 9.125 C0.696875 9.74375 1.83125 10.3625 3 11 C3.48309179 17.40096618 3.48309179 17.40096618 1.4375 19.9375 C-1.94706527 21.41282332 -4.34603178 21.45674603 -8 21 C-10.4375 19 -10.4375 19 -12 17 C-11.01 15.515 -11.01 15.515 -10 14 C-7.33333333 14.66666667 -4.66666667 15.33333333 -2 16 C-5.39634558 12.46739129 -5.39634558 12.46739129 -9.3125 9.5625 C-11 8 -11 8 -11.5 5 C-11 2 -11 2 -9.4375 0.0625 C-5.96908544 -1.44937301 -3.62895985 -0.85775415 0 0 Z " fill="#EDF7F6" transform="translate(107,161)"/>
<path d="M0 0 C1.98 0 3.96 0 6 0 C6 9.9 6 19.8 6 30 C4.02 30 2.04 30 0 30 C0 20.1 0 10.2 0 0 Z " fill="#E3F2F4" transform="translate(399,152)"/>
<path d="M0 0 C0.5534764 2.07553648 1 3.84365964 1 6 C3.85778033 6.68493373 3.85778033 6.68493373 7 7 C10.32901247 4.78065836 10.75023244 3.65316671 12 0 C12.33 0 12.66 0 13 0 C13.45763495 5.72043683 12.71653644 8.59883843 9 13 C4.59254688 16.89495857 1.40988674 17.40177695 -4.2421875 17.140625 C-4.82226562 17.09421875 -5.40234375 17.0478125 -6 17 C-7 14 -7 14 -6.125 12.1875 C-5.75375 11.465625 -5.3825 10.74375 -5 10 C-4.61709538 8.00889599 -4.27395385 6.00899487 -4 4 C-3.01 3.67 -2.02 3.34 -1 3 C-0.67 2.01 -0.34 1.02 0 0 Z " fill="#0988D1" transform="translate(374,121)"/>
<path d="M0 0 C4.23862616 3.48172863 6.23702046 7.90798994 8 13 C8 13.99 8 14.98 8 16 C3.05 16 -1.9 16 -7 16 C-5.61777376 11.85332129 -4.33435798 8.44059185 -2.375 4.625 C-1.92898438 3.75101563 -1.48296875 2.87703125 -1.0234375 1.9765625 C-0.68570312 1.32429688 -0.34796875 0.67203125 0 0 Z " fill="#128CD2" transform="translate(390,58)"/>
<path d="M0 0 C1.98 0 3.96 0 6 0 C6 7.26 6 14.52 6 22 C4.02 22 2.04 22 0 22 C0 14.74 0 7.48 0 0 Z " fill="#DCF0F5" transform="translate(409,160)"/>
<path d="M0 0 C8.48704159 0.61500301 8.48704159 0.61500301 10.80078125 2.3515625 C12 4 12 4 11.875 7.0625 C11 10 11 10 8 12 C5.95703125 12.1953125 5.95703125 12.1953125 3.8125 12.125 C1.9253125 12.063125 1.9253125 12.063125 0 12 C0 8.04 0 4.08 0 0 Z " fill="#1990D3" transform="translate(454,107)"/>
<path d="M0 0 C2.9375 0.875 2.9375 0.875 4.9375 3.875 C5.3125 6.375 5.3125 6.375 4.9375 8.875 C3.3125 10.75 3.3125 10.75 0.9375 11.875 C-2.1875 11.75 -2.1875 11.75 -5.0625 10.875 C-7.0625 7.875 -7.0625 7.875 -6.875 5.375 C-5.51486662 1.18997423 -4.55479903 -0.18591016 0 0 Z " fill="#138DD2" transform="translate(385.0625,165.125)"/>
<path d="M0 0 C3.5 0.25 3.5 0.25 5.5 2.25 C5.82954432 5.34771665 5.95334601 7.42331023 4.4375 10.1875 C1.28433176 11.91665678 -1.12508255 11.1090699 -4.5 10.25 C-6.5 7.25 -6.5 7.25 -6.25 4.6875 C-5.03772664 0.74761157 -4.12711402 0.29479386 0 0 Z " fill="#118DD2" transform="translate(80.5,165.75)"/>
<path d="M0 0 C7.38804781 -0.36334661 7.38804781 -0.36334661 10 1.1875 C11.36703913 3.66525842 11.41826612 5.21155919 11 8 C10 9.8125 10 9.8125 8 11 C5.28125957 11.24667073 2.74116148 11.13481122 0 11 C0 7.37 0 3.74 0 0 Z " fill="#138DD3" transform="translate(324,108)"/>
<path d="M0 0 C3.5 0.25 3.5 0.25 5.5 2.25 C5.82954432 5.34771665 5.95334601 7.42331023 4.4375 10.1875 C1.31857551 11.89787795 -1.15557801 11.05513863 -4.5 10.25 C-5.88125018 7.48749964 -5.69079306 5.30268901 -5.5 2.25 C-3.5 0.25 -3.5 0.25 0 0 Z " fill="#0B89D1" transform="translate(357.5,165.75)"/>
<path d="M0 0 C3.625 -0.1875 3.625 -0.1875 7 0 C7.33 1.65 7.66 3.3 8 5 C6.375 6.5625 6.375 6.5625 4 8 C0.75 7.6875 0.75 7.6875 -2 7 C-2 3 -2 3 0 0 Z " fill="#EAF6F6" transform="translate(377,121)"/>
<path d="M0 0 C2.56687367 3.8503105 1.83288724 5.58569763 1 10 C-1.375 10.625 -1.375 10.625 -4 11 C-6 9 -6 9 -6.375 6.625 C-5.85761283 3.00328983 -3.93056022 0 0 0 Z " fill="#EEF8F6" transform="translate(368,123)"/>
<path d="M0 0 C2.875 -0.125 2.875 -0.125 6 0 C8 2 8 2 8.125 5.125 C8.08375 6.07375 8.0425 7.0225 8 8 C2.58860759 8.36075949 2.58860759 8.36075949 0.0625 6.8125 C-1 5 -1 5 -0.6875 2.3125 C-0.460625 1.549375 -0.23375 0.78625 0 0 Z " fill="#F4FBF7" transform="translate(365,111)"/>
<path d="M0 0 C1.2065625 0.0309375 1.2065625 0.0309375 2.4375 0.0625 C3.0625 2.4375 3.0625 2.4375 3.4375 5.0625 C2.7775 5.7225 2.1175 6.3825 1.4375 7.0625 C-0.6875 6.6875 -0.6875 6.6875 -2.5625 6.0625 C-2.94468767 4.40635343 -3.27645102 2.73792976 -3.5625 1.0625 C-2.5625 0.0625 -2.5625 0.0625 0 0 Z " fill="#E7F4F4" transform="translate(411.5625,151.9375)"/>
<path d="M0 0 C0.66 0 1.32 0 2 0 C3.49821059 3.37097383 4 5.20442119 4 9 C2.02 9 0.04 9 -2 9 C-1.51421457 5.87709365 -1.0013988 3.00419641 0 0 Z " fill="#2093D1" transform="translate(238,162)"/>
<path d="M0 0 C3.3 0.33 6.6 0.66 10 1 C9.67 1.66 9.34 2.32 9 3 C8.34 3 7.68 3 7 3 C6.34 4.32 5.68 5.64 5 7 C2.5 5.1875 2.5 5.1875 0 3 C0 2.01 0 1.02 0 0 Z " fill="#148ED2" transform="translate(306,158)"/>
<path d="M0 0 C0 0.66 0 1.32 0 2 C-3.08888522 4.05925681 -3.70935927 4.2390374 -7.1875 4.125 C-9.0746875 4.063125 -9.0746875 4.063125 -11 4 C-11 3.34 -11 2.68 -11 2 C-7.36576791 -0.32590854 -4.22911669 -0.16265833 0 0 Z " fill="#198FD1" transform="translate(58,173)"/>
<path d="M0 0 C3.5 -0.375 3.5 -0.375 7 0 C7.66 0.99 8.32 1.98 9 3 C5.37 3 1.74 3 -2 3 C-1.34 2.01 -0.68 1.02 0 0 Z " fill="#138BD1" transform="translate(426,165)"/>
<path d="M0 0 C0.3403125 0.928125 0.3403125 0.928125 0.6875 1.875 C2.37929835 4.61410209 3.99244161 5.05024472 7 6 C7 7.32 7 8.64 7 10 C4.0280615 8.87548273 1.66559313 7.77706209 -1 6 C-0.67 4.02 -0.34 2.04 0 0 Z " fill="#1C90D2" transform="translate(361,128)"/>
<path d="M0 0 C2.0625 0.4375 2.0625 0.4375 4 1 C4.33 2.32 4.66 3.64 5 5 C3.35 5 1.7 5 0 5 C-0.5625 3.0625 -0.5625 3.0625 -1 1 C-0.67 0.67 -0.34 0.34 0 0 Z " fill="#198FD1" transform="translate(134,172)"/>
<path d="M0 0 C1.22589844 0.01353516 1.22589844 0.01353516 2.4765625 0.02734375 C3.41628906 0.04474609 3.41628906 0.04474609 4.375 0.0625 C4.375 0.3925 4.375 0.7225 4.375 1.0625 C1.735 1.0625 -0.905 1.0625 -3.625 1.0625 C-3.625 1.7225 -3.625 2.3825 -3.625 3.0625 C-2.965 3.3925 -2.305 3.7225 -1.625 4.0625 C-3.605 4.0625 -5.585 4.0625 -7.625 4.0625 C-7.295 3.0725 -6.965 2.0825 -6.625 1.0625 C-4.21954362 -0.14022819 -2.67503047 -0.03821472 0 0 Z " fill="#369DD5" transform="translate(371.625,106.9375)"/>
<path d="M0 0 C0 0.99 0 1.98 0 3 C-0.66 3 -1.32 3 -2 3 C-2.33 3.66 -2.66 4.32 -3 5 C-4.32 4.34 -5.64 3.68 -7 3 C-7 2.34 -7 1.68 -7 1 C-5.5459375 1.0309375 -5.5459375 1.0309375 -4.0625 1.0625 C-1.12534105 1.35618499 -1.12534105 1.35618499 0 0 Z " fill="#198ED1" transform="translate(457,165)"/>
</svg>
